<?xml version="1.0" encoding="UTF-8" standalone="no"?>
<!-- Created with Inkscape (http://www.inkscape.org/) -->

<svg
   width="944.8819"
   height="461.10236"
   viewBox="0 0 250 122"
   version="1.1"
   id="svg1"
   xml:space="preserve"
   sodipodi:docname="display-template.svg"
   inkscape:version="1.3 (0e150ed, 2023-07-21)"
   xmlns:inkscape="http://www.inkscape.org/namespaces/inkscape"
   xmlns:sodipodi="http://sodipodi.sourceforge.net/DTD/sodipodi-0.dtd"
   xmlns="http://www.w3.org/2000/svg"
   xmlns:svg="http://www.w3.org/2000/svg"><sodipodi:namedview
     id="namedview1"
     pagecolor="#ffffff"
     bordercolor="#000000"
     borderopacity="0.25"
     inkscape:showpageshadow="2"
     inkscape:pageopacity="0.0"
     inkscape:pagecheckerboard="true"
     inkscape:deskcolor="#d1d1d1"
     inkscape:document-units="mm"
     inkscape:zoom="0.94191666"
     inkscape:cx="472.44095"
     inkscape:cy="357.78112"
     inkscape:window-width="1888"
     inkscape:window-height="1027"
     inkscape:window-x="47"
     inkscape:window-y="25"
     inkscape:window-maximized="1"
     inkscape:current-layer="g1"
     shape-rendering="crispEdges"
     showgrid="false" /><defs
     id="defs1"><rect
       x="10.616651"
       y="10.616651"
       width="820.66708"
       height="768.6455"
       id="rect1" /><rect
       x="10.616651"
       y="10.616651"
       width="820.66705"
       height="768.64551"
       id="rect1-6" /><style
       id="style1">.cls-1{fill:none;stroke:#020202;stroke-miterlimit:10;stroke-width:2px;}</style></defs><g
     inkscape:label="Layer 1"
     inkscape:groupmode="layer"
     id="layer1"><text
       xml:space="preserve"
       id="text1"
       style="font-size:60px;font-family:Arial;-inkscape-font-specification:Arial;white-space:pre;shape-inside:url(#rect1);display:inline;fill:#000000;stroke:#000000"
       transform="matrix(0.90595389,0,0,1.000933,51.783948,-18.584989)"><tspan
         x="10.617188"
         y="73.669997"
         id="tspan2"><tspan
           style="font-weight:bold;font-size:70px;-inkscape-font-specification:'Arial Bold'"
           id="tspan1">POWER</tspan></tspan></text><text
       xml:space="preserve"
       id="text1-4"
       style="font-size:60px;font-family:Arial;-inkscape-font-specification:Arial;white-space:pre;shape-inside:url(#rect1-6);display:inline;fill:#000000;stroke:#000000"
       transform="matrix(0.90595389,0,0,1.000933,51.783948,40.940017)"><tspan
         x="10.617188"
         y="73.669997"
         id="tspan4"><tspan
           style="font-weight:bold;font-size:70px;-inkscape-font-specification:'Arial Bold'"
           id="tspan3">LOAD</tspan></tspan></text><g
       id="g1"
       transform="matrix(0.89156134,0,0,0.89156134,1.8071161,1.8717032)"><path
         d="m 20.519,59.717 7.027,-7.2 a 20.87,20.87 0 0 1 -6.904,-2.87 l -0.123,10.07"
         fill="#000000"
         id="path1" /><path
         d="m 43.481,4.284 -7.027,7.199 a 20.872,20.872 0 0 1 6.904,2.871 l 0.123,-10.07"
         fill="#000000"
         id="path2" /><path
         d="m 11.484,36.454 -7.201,7.025 10.07,-0.122 a 20.872,20.872 0 0 1 -2.869,-6.903"
         fill="#000000"
         id="path3" /><path
         d="m 52.516,27.547 7.199,-7.027 -10.07,0.123 a 20.902,20.902 0 0 1 2.871,6.904"
         fill="#000000"
         id="path4" /><path
         d="m 14.355,20.642 -10.07,-0.123 7.199,7.027 a 20.872,20.872 0 0 1 2.871,-6.904"
         fill="#000000"
         id="path5" /><path
         d="m 49.645,43.358 10.07,0.122 -7.199,-7.026 a 20.902,20.902 0 0 1 -2.871,6.904"
         fill="#000000"
         id="path6" /><path
         d="m 27.546,11.483 -7.025,-7.2 0.121,10.07 a 20.888,20.888 0 0 1 6.904,-2.87"
         fill="#000000"
         id="path7" /><path
         d="m 36.454,52.517 7.027,7.199 -0.123,-10.069 a 20.891,20.891 0 0 1 -6.904,2.87"
         fill="#000000"
         id="path8" /><path
         d="m 14.751,43.962 -3.965,9.251 9.252,-3.965 a 21.145,21.145 0 0 1 -5.287,-5.286"
         fill="#000000"
         id="path9" /><path
         d="m 49.248,20.039 3.965,-9.252 -9.251,3.965 a 21.145,21.145 0 0 1 5.286,5.287"
         fill="#000000"
         id="path10" /><path
         d="m 11,32 c 0,-1.278 0.133,-2.524 0.352,-3.741 L 2,31.999 l 9.351,3.74 A 21.034,21.034 0 0 1 11,32 Z"
         fill="#000000"
         id="path11" /><path
         d="m 62,32 -9.354,-3.741 c 0.219,1.217 0.352,2.463 0.352,3.741 0,1.279 -0.133,2.525 -0.352,3.741 L 62,32"
         fill="#000000"
         id="path12" /><path
         d="m 20.039,14.751 -9.252,-3.965 3.965,9.252 a 21.116,21.116 0 0 1 5.287,-5.287"
         fill="#000000"
         id="path13" /><path
         d="m 43.962,49.248 9.251,3.965 -3.965,-9.251 a 21.124,21.124 0 0 1 -5.286,5.286"
         fill="#000000"
         id="path14" /><path
         d="M 35.741,11.352 32.001,2 28.259,11.352 A 21.072,21.072 0 0 1 31.999,11 c 1.279,0 2.525,0.133 3.742,0.352"
         fill="#000000"
         id="path15" /><path
         d="M 28.259,52.648 32.001,62 35.741,52.648 A 21.077,21.077 0 0 1 31.999,53 c -1.277,0 -2.523,-0.133 -3.74,-0.352"
         fill="#000000"
         id="path16" /><path
         d="m 31.999,13 c -10.492,0 -19,8.508 -19,19 0,10.493 8.508,19 19,19 10.494,0 18.999,-8.507 18.999,-19 0,-10.492 -8.505,-19 -18.999,-19 m 0,36 c -9.374,0 -17,-7.626 -17,-17 0,-9.374 7.626,-17 17,-17 9.374,0 16.999,7.626 16.999,17 0,9.374 -7.625,17 -16.999,17"
         fill="#000000"
         id="path17" /><path
         d="m 39.971,37.243 c -5.137,3.583 -10.834,3.562 -15.939,0 -0.615,-0.428 -1.168,0.314 -0.752,1 1.556,2.563 4.697,4.845 8.722,4.845 4.023,0 7.164,-2.282 8.721,-4.845 0.416,-0.685 -0.137,-1.428 -0.752,-1"
         fill="#000000"
         id="smile" /><path
         d="m 29.004,25.976642 c 0.305,-0.318 0.912,0.268 0.795,0.594 -1.178,3.238 -2.951,4.857 -4.725,4.857 -1.773,0 -3.548,-1.619 -4.724,-4.857 -0.117,-0.326 0.49,-0.912 0.795,-0.594 1.141,1.205 2.506,1.684 3.929,1.684 1.424,0 2.791,-0.479 3.93,-1.684"
         fill="#000000"
         id="path19" /><path
         d="m 38.924,31.427642 c -1.771,0 -3.547,-1.619 -4.725,-4.857 -0.117,-0.326 0.492,-0.912 0.795,-0.594 1.141,1.205 2.506,1.684 3.93,1.684 1.426,0 2.791,-0.479 3.932,-1.684 0.305,-0.318 0.91,0.268 0.795,0.594 -1.178,3.238 -2.952,4.857 -4.727,4.857"
         fill="#000000"
         id="path20" /><path
         d="m 39.971,42.961726 c -5.137,-3.583 -10.834,-3.562 -15.939,0 -0.615,0.428 -1.168,-0.314 -0.752,-1 1.556,-2.563 4.697,-4.845 8.722,-4.845 4.023,0 7.164,2.282 8.721,4.845 0.416,0.685 -0.137,1.428 -0.752,1"
         fill="#000000"
         id="frown" /></g><g
       id="g2"
       transform="matrix(2.2033764,0,0,2.2033764,3.8965622,63.380271)"><polyline
         class="cls-1"
         points="20 8.5 20 22.5 4 22.5 4 8.5"
         id="polyline1" /><polyline
         class="cls-1"
         points="23 10.5 12 1.5 1 10.5"
         id="polyline2" /><polygon
         class="cls-1"
         points="15,12.5 12,12.5 12,9.5 9,13.5 12,13.5 12,16.5 "
         id="polygon2" /></g><path
       fill-rule="evenodd"
       clip-rule="evenodd"
       fill="#31373d"
       d="m 16.577663,24.427484 c 0.196841,0.196021 1.179407,0.784904 1.375428,1.373788 0.196842,0.588064 0.590525,4.352655 1.769933,5.334402 1.216315,1.010452 5.804359,0.633993 6.682764,0.196841 1.965954,-0.980106 2.207085,-4.145972 2.554837,-5.532063 0.196021,-0.784905 1.37543,-0.784905 1.37543,-0.784905 0,0 1.179407,0 1.376249,0.784085 0.347753,1.386911 0.590523,4.561799 2.554836,5.540265 0.879225,0.438793 5.467269,0.815251 6.685225,-0.195202 1.177768,-0.981745 1.57063,-4.756179 1.767472,-5.345063 0.195201,-0.588064 1.179407,-1.176947 1.375428,-1.372968 0.197663,-0.196022 0.197663,-0.980927 0,-1.177769 -0.392862,-0.392042 -5.030936,-0.741435 -10.024967,-0.196021 -0.996509,0.109084 -1.375428,0.392043 -3.735064,0.392043 -2.357994,0 -2.738555,-0.283779 -3.734245,-0.392043 -4.990749,-0.544594 -9.629643,-0.195201 -10.023326,0.196842 -0.196022,0.196021 -0.196022,0.981746 0,1.177768 z"
       id="shades"
       style="opacity:1;fill:#000000;stroke-width:0.820174" /></g></svg>
